<?xml version="1.0" encoding="iso-8859-1"?>
<!-- Generator: Adobe Illustrator 19.0.0, SVG Export Plug-In . SVG Version: 6.00 Build 0)  -->
<svg version="1.1" id="Layer_1" xmlns="http://www.w3.org/2000/svg" xmlns:xlink="http://www.w3.org/1999/xlink" x="0px" y="0px"
	 viewBox="0 0 512 512" style="enable-background:new 0 0 512 512;" xml:space="preserve">
<g transform="translate(1 1)">
	<g>
		<g>
			<path d="M476.867,33.133H289.133v-25.6c0-5.12-3.413-8.533-8.533-8.533h-51.2c-5.12,0-8.533,3.413-8.533,8.533v25.6H33.133
				C14.36,33.133-1,48.493-1,67.267V255c0,18.773,15.36,34.133,34.133,34.133h187.733v110.933c0,20.48-5.12,41.813-14.507,60.587
				l-0.155,0.31c-6.378,2.478-10.938,8.677-10.938,15.903v25.6c0,5.12,3.413,8.533,8.533,8.533h102.4
				c5.12,0,8.533-3.413,8.533-8.533v-25.6c0-7.227-4.56-13.426-10.938-15.903l-0.155-0.31
				c-9.387-18.773-14.507-39.253-14.507-60.587V289.133h187.733C495.64,289.133,511,273.773,511,255V67.267
				C511,48.493,495.64,33.133,476.867,33.133z M237.933,16.067h34.133v17.067h-34.133V16.067z M284.013,459.8h-58.027
				c6.827-16.213,11.093-33.28,11.947-51.2h34.133C272.92,426.52,277.187,443.587,284.013,459.8z M297.667,493.933h-85.333v-17.067
				h85.333V493.933z M272.067,391.533h-34.133v-102.4h34.133V391.533z M493.933,255c0,9.387-7.68,17.067-17.067,17.067H280.6h-51.2
				H33.133c-9.387,0-17.067-7.68-17.067-17.067V67.267c0-9.387,7.68-17.067,17.067-17.067H229.4h51.2h196.267
				c9.387,0,17.067,7.68,17.067,17.067V255z"/>
			<path d="M141.507,69.827c-1.707-1.707-3.413-2.56-5.973-2.56s-4.267,0.853-5.973,2.56l-93.867,93.867
				c-3.413,3.413-3.413,8.533,0,11.947l25.6,25.6c1.707,1.707,3.413,2.56,5.973,2.56s4.267-0.853,5.973-2.56l2.56-2.56v47.787
				c0,5.12,3.413,8.533,8.533,8.533h102.4c5.12,0,8.533-3.413,8.533-8.533V198.68l2.56,2.56c1.707,1.707,3.413,2.56,5.973,2.56
				s4.267-0.853,5.973-2.56l25.6-25.6c1.707-1.707,2.56-3.413,2.56-5.973s-0.853-4.267-2.56-5.973L141.507,69.827z M178.2,237.933
				H92.867v-56.32l42.667-42.667l42.667,42.667V237.933z M203.8,183.32l-11.093-11.093l-51.2-51.2
				c-0.853-1.707-2.56-2.56-4.267-2.56c0,0-0.853,0-1.707,0c-2.56,0-4.267,0.853-5.973,2.56l-51.2,51.2L67.267,183.32
				l-13.653-13.653l81.92-81.92l81.92,81.92L203.8,183.32z"/>
			<path d="M438.467,93.72c-4.267-2.56-9.387-1.707-11.947,2.56l-79.36,118.613l-34.987-42.667
				c-2.56-3.413-8.533-4.267-11.947-0.853c-3.413,2.56-4.267,8.533-0.853,11.947l42.667,51.2c1.707,2.56,4.267,3.413,6.827,3.413
				c3.413,0,5.973-1.707,6.827-4.267l85.333-128C443.587,101.4,442.733,96.28,438.467,93.72z"/>
		</g>
	</g>
</g>
<g>
</g>
<g>
</g>
<g>
</g>
<g>
</g>
<g>
</g>
<g>
</g>
<g>
</g>
<g>
</g>
<g>
</g>
<g>
</g>
<g>
</g>
<g>
</g>
<g>
</g>
<g>
</g>
<g>
</g>
</svg>
