<svg width="513" height="422" viewBox="0 0 513 422" fill="none" xmlns="http://www.w3.org/2000/svg">
<path d="M80.9385 80.4564H155.705C162.065 34.6109 201.643 0.0400391 248.045 0.0400391H265.395C311.796 0.0400391 351.374 34.6109 357.734 80.4564H432.501C476.648 80.4564 512.72 116.528 512.72 160.681V341.273C512.72 385.426 476.648 421.497 432.501 421.497H80.9385C36.791 421.497 0.719727 385.426 0.719727 341.273V160.681C0.719727 116.528 36.791 80.4564 80.9385 80.4564V80.4564ZM142.14 297.174L107.476 346.465C97.8195 360.197 76.9189 345.49 86.5758 331.764L121.246 282.461C109.65 270.414 102.518 254.027 102.518 235.985C102.518 198.963 132.532 168.943 169.555 168.943C206.577 168.943 236.591 198.963 236.591 235.985C236.591 273.001 206.577 303.022 169.555 303.022C159.787 303.022 150.513 300.928 142.14 297.174V297.174ZM169.555 194.548C146.672 194.548 128.118 213.103 128.118 235.985C128.118 258.868 146.672 277.416 169.555 277.416C192.437 277.416 210.992 258.868 210.992 235.985C210.992 213.103 192.437 194.548 169.555 194.548ZM281.998 358.888C265.16 358.888 265.16 333.283 281.998 333.283H400.591C417.429 333.283 417.429 358.888 400.591 358.888H281.998V358.888ZM281.998 283.442C265.16 283.442 265.16 257.837 281.998 257.837H400.591C417.429 257.837 417.429 283.442 400.591 283.442H281.998V283.442ZM281.998 321.162C265.16 321.162 265.16 295.563 281.998 295.563H400.591C417.429 295.563 417.429 321.162 400.591 321.162H281.998V321.162ZM281.998 245.716C265.16 245.716 265.16 220.111 281.998 220.111H400.591C417.429 220.111 417.429 245.716 400.591 245.716H281.998V245.716ZM281.998 174.679C265.16 174.679 265.16 149.08 281.998 149.08H377.11C393.954 149.08 393.954 174.679 377.11 174.679H281.998ZM181.657 80.4564H331.783C325.658 48.8678 297.687 25.6456 265.395 25.6456H248.045C215.752 25.6456 187.782 48.8678 181.657 80.4564ZM432.501 106.056C315.309 106.056 198.13 106.056 80.9385 106.056C50.9306 106.056 26.3191 130.667 26.3191 160.681V341.273C26.3191 371.287 50.9244 395.892 80.9385 395.892H432.501C462.509 395.892 487.12 371.287 487.12 341.273V160.681C487.12 130.667 462.509 106.056 432.501 106.056V106.056Z" fill="black"/>
</svg>
