<svg width="512" height="444" viewBox="0 0 512 444" fill="none" xmlns="http://www.w3.org/2000/svg">
<path d="M142.507 224.56C140.8 222.853 139.094 222 136.534 222C133.974 222 132.267 222.853 130.561 224.56L36.6935 318.427C33.2805 321.84 33.2805 326.96 36.6935 330.374L62.2935 355.974C64.0005 357.681 65.7065 358.534 68.2665 358.534C70.8265 358.534 72.5335 357.681 74.2395 355.974L76.7995 353.414V401.2C76.7995 406.32 80.2125 409.733 85.3325 409.733H187.733C192.853 409.733 196.266 406.32 196.266 401.2V353.413L198.826 355.973C200.533 357.68 202.239 358.533 204.799 358.533C207.359 358.533 209.066 357.68 210.772 355.973L236.372 330.373C238.079 328.666 238.932 326.96 238.932 324.4C238.932 321.84 238.079 320.133 236.372 318.427L142.507 224.56ZM179.2 392.667H93.8665V336.347L136.534 293.68L179.201 336.347V392.667H179.2ZM204.8 338.053L193.707 326.96L142.507 275.76C141.654 274.053 139.947 273.2 138.24 273.2C138.24 273.2 137.387 273.2 136.533 273.2C133.973 273.2 132.266 274.053 130.56 275.76L79.3595 326.96L68.2665 338.053L54.6125 324.4L136.533 242.48L218.453 324.4L204.8 338.053Z" fill="black"/>
<path d="M401.92 251.013L322.56 369.626L287.573 326.959C285.013 323.546 279.04 322.692 275.626 326.106C272.213 328.666 271.359 334.639 274.773 338.053L317.44 389.253C319.147 391.813 321.707 392.666 324.267 392.666C327.68 392.666 330.24 390.959 331.094 388.399L416.427 260.399C418.987 256.132 418.134 251.012 413.867 248.452C409.6 245.892 404.48 246.747 401.92 251.013Z" fill="black"/>
<path d="M434.997 68.3998C442.712 78.8178 455.115 85.4668 469.333 85.4668C493.227 85.4668 512 66.6928 512 42.7998C512 18.9068 493.227 0.132812 469.333 0.132812C455.115 0.132812 442.712 6.78181 434.997 17.1998H8.533C3.413 17.1998 0 20.6128 0 25.7328V59.8658C0 64.9858 3.413 68.3988 8.533 68.3988H93.866V102.532H34.133C15.36 102.533 0 117.893 0 136.667V409.734C0 428.507 15.36 443.867 34.133 443.867H443.733C462.506 443.867 477.866 428.507 477.866 409.734V136.667C477.866 117.894 462.506 102.534 443.733 102.534H384V68.3998H434.997ZM469.333 17.1998C483.84 17.1998 494.933 28.2928 494.933 42.7998C494.933 57.3068 483.84 68.3998 469.333 68.3998C460.189 68.3998 452.404 63.9898 447.896 57.0978C447.697 56.5788 447.461 56.0718 447.146 55.6008C445.912 53.5448 445.083 51.4888 444.546 49.4328C444.33 48.5768 444.154 47.7018 444.023 46.8078C444.021 46.7908 444.018 46.7738 444.016 46.7578C443.958 46.3548 443.909 45.9478 443.868 45.5378C443.859 45.4428 443.853 45.3488 443.845 45.2538C443.815 44.9088 443.788 44.5628 443.77 44.2128C443.748 43.7418 443.733 43.2708 443.733 42.8008C443.733 42.3618 443.744 41.9268 443.764 41.4948C443.765 41.4718 443.766 41.4488 443.767 41.4258C443.787 41.0148 443.817 40.6078 443.855 40.2038C443.864 40.1108 443.875 40.0178 443.885 39.9248C443.903 39.7488 443.927 39.5738 443.949 39.3988C444.37 36.2658 445.494 33.1328 448 29.9998C448.672 28.9918 449.069 27.8498 449.212 26.6818C453.838 20.8448 461.023 17.1998 469.333 17.1998ZM17.067 34.2668H427.492C427.475 34.3518 427.463 34.4388 427.447 34.5248C426.674 37.0538 426.666 40.3228 426.666 42.8008C426.666 45.2788 426.673 48.5478 427.447 51.0768C427.463 51.1618 427.475 51.2488 427.492 51.3348H17.067V34.2668ZM443.733 119.6C453.12 119.6 460.8 127.28 460.8 136.667V409.734C460.8 419.121 453.12 426.801 443.733 426.801H34.133C24.746 426.801 17.066 419.121 17.066 409.734V136.667C17.066 127.28 24.746 119.6 34.133 119.6H93.866V137.754C79.187 141.568 68.266 154.97 68.266 170.8C68.266 189.573 83.626 204.933 102.399 204.933C121.172 204.933 136.532 189.573 136.532 170.8C136.532 154.971 125.611 141.568 110.932 137.754V119.6H366.932V137.754C352.253 141.568 341.332 154.97 341.332 170.8C341.332 189.573 356.692 204.933 375.465 204.933C394.238 204.933 409.598 189.573 409.598 170.8C409.598 154.97 398.677 141.568 383.998 137.754V119.6H443.733ZM102.4 170.8C107.52 170.8 110.933 167.387 110.933 162.267V156.055C116.019 159.018 119.466 164.521 119.466 170.801C119.466 180.188 111.786 187.868 102.399 187.868C93.012 187.868 85.332 180.188 85.332 170.801C85.332 164.521 88.779 159.019 93.865 156.055V162.267C93.867 167.387 97.28 170.8 102.4 170.8ZM375.467 170.8C380.587 170.8 384 167.387 384 162.267V156.055C389.086 159.018 392.533 164.521 392.533 170.801C392.533 180.188 384.853 187.868 375.466 187.868C366.079 187.868 358.4 180.187 358.4 170.8C358.4 164.52 361.847 159.018 366.933 156.054V162.266C366.933 167.387 370.347 170.8 375.467 170.8ZM366.933 102.533H110.933V68.3998H366.933V102.533Z" fill="black"/>
</svg>
