<?xml version="1.0" encoding="iso-8859-1"?>
<!-- Generator: Adobe Illustrator 19.0.0, SVG Export Plug-In . SVG Version: 6.00 Build 0)  -->
<svg version="1.1" id="Layer_1" xmlns="http://www.w3.org/2000/svg" xmlns:xlink="http://www.w3.org/1999/xlink" x="0px" y="0px"
	 viewBox="0 0 512 512" style="enable-background:new 0 0 512 512;" xml:space="preserve">
<g>
	<g>
		<path d="M285.092,312.789l11.015-11.016L148.053,153.72L0,301.772l11.015,11.016l18.068-18.068V474.09H13.505v15.578h268.98
			V474.09h-15.578V294.601L285.092,312.789z M251.329,474.092H44.661V279.143L148.054,175.75l103.275,103.276V474.092z"/>
	</g>
</g>
<g>
	<g>
		<rect x="140.202" y="219.649" width="15.578" height="40.503"/>
	</g>
</g>
<g>
	<g>
		<polygon points="109.05,362.969 109.05,465.783 124.628,465.783 124.628,378.547 172.4,378.547 172.4,465.783 187.978,465.783 
			187.978,362.969 		"/>
	</g>
</g>
<g>
	<g>
		<rect x="131.893" y="418.009" width="16.617" height="15.578"/>
	</g>
</g>
<g>
	<g>
		<polygon points="496.422,22.33 496.422,474.092 290.793,474.092 290.793,489.67 512,489.67 512,22.33 		"/>
	</g>
</g>
<g>
	<g>
		<polygon points="258.598,204.073 258.598,251.846 274.176,251.846 274.176,219.651 306.371,219.651 306.371,465.783 
			321.949,465.783 321.949,204.073 		"/>
	</g>
</g>
<g>
	<g>
		<polygon points="338.565,140.723 338.565,465.783 354.143,465.783 354.143,156.301 385.299,156.301 385.299,465.783 
			400.877,465.783 400.877,140.723 		"/>
	</g>
</g>
<g>
	<g>
		<polygon points="417.494,77.373 417.494,465.783 433.072,465.783 433.072,92.951 465.266,92.951 465.266,465.783 480.844,465.783 
			480.844,77.373 		"/>
	</g>
</g>
<g>
</g>
<g>
</g>
<g>
</g>
<g>
</g>
<g>
</g>
<g>
</g>
<g>
</g>
<g>
</g>
<g>
</g>
<g>
</g>
<g>
</g>
<g>
</g>
<g>
</g>
<g>
</g>
<g>
</g>
</svg>
