<svg width="512" height="512" viewBox="0 0 512 512" fill="none" xmlns="http://www.w3.org/2000/svg">
<g clip-path="url(#clip0_212_680)">
<path d="M184.141 188.09L224.562 147.668L197.615 120.721L62.8779 255.459L247.011 439.595C247.012 439.596 247.015 439.598 247.016 439.6C254.447 447.03 266.537 447.03 273.965 439.601C277.566 436.001 279.548 431.216 279.548 426.127C279.548 421.043 277.568 416.26 273.974 412.663C273.972 412.659 273.968 412.658 273.965 412.655C273.964 412.654 273.963 412.651 273.96 412.649L247.017 385.707C239.576 378.265 239.576 366.201 247.016 358.76C254.456 351.319 266.521 351.318 273.964 358.76L300.913 385.707C300.915 385.709 300.918 385.713 300.921 385.717C308.353 393.136 320.433 393.133 327.86 385.708C335.288 378.278 335.29 366.19 327.86 358.761C327.855 358.755 327.849 358.748 327.842 358.742L300.913 331.813C293.472 324.371 293.472 312.307 300.913 304.865C308.353 297.425 320.418 297.424 327.86 304.864L354.802 331.805C354.808 331.811 354.813 331.818 354.819 331.824C362.249 339.238 374.323 339.236 381.749 331.818C381.751 331.815 381.754 331.814 381.755 331.811L381.768 331.799C385.358 328.2 387.337 323.421 387.337 318.337C387.338 313.255 385.362 308.478 381.772 304.882L372.773 295.882C372.77 295.879 372.768 295.877 372.765 295.873L305.406 228.513L264.984 268.935C264.983 268.936 264.983 268.936 264.983 268.936C253.84 280.078 239.202 285.651 224.564 285.651C209.925 285.651 195.287 280.078 184.143 268.933C161.861 246.65 161.858 210.394 184.133 188.104C184.133 188.098 184.137 188.093 184.141 188.09Z" fill="black"/>
<path d="M164.996 99.4487L170.669 93.7755L143.719 66.8271L0 210.548L26.9471 237.495L164.996 99.4487Z" fill="black"/>
<path d="M264.996 161.129C264.991 161.134 264.987 161.139 264.982 161.144C264.977 161.149 264.972 161.153 264.967 161.156L211.089 215.037C211.086 215.038 211.086 215.038 211.085 215.039C203.658 222.471 203.659 234.558 211.086 241.985C218.518 249.414 230.606 249.415 238.036 241.984L291.93 188.09C295.504 184.516 300.351 182.508 305.403 182.508C310.458 182.508 315.304 184.516 318.876 188.09L399.715 268.928C399.715 268.93 399.717 268.93 399.717 268.93L408.697 277.909C408.698 277.911 408.698 277.911 408.701 277.912C408.702 277.913 408.704 277.916 408.706 277.918L422.174 291.386L449.121 264.439L305.403 120.721L264.996 161.129Z" fill="black"/>
<path d="M332.353 93.7784L485.054 246.479L512.001 219.532L359.3 66.8313L332.353 93.7784Z" fill="black"/>
</g>
<defs>
<clipPath id="clip0_212_680">
<rect width="512" height="512" fill="white"/>
</clipPath>
</defs>
</svg>
