<svg id="visual" viewBox="0 0 900 675" width="900" height="675" xmlns="http://www.w3.org/2000/svg" xmlns:xlink="http://www.w3.org/1999/xlink" version="1.1"><path d="M0 158L21.5 164.2C43 170.3 86 182.7 128.8 184.7C171.7 186.7 214.3 178.3 257.2 170.5C300 162.7 343 155.3 385.8 160.5C428.7 165.7 471.3 183.3 514.2 190.2C557 197 600 193 642.8 191.2C685.7 189.3 728.3 189.7 771.2 190.3C814 191 857 192 878.5 192.5L900 193L900 0L878.5 0C857 0 814 0 771.2 0C728.3 0 685.7 0 642.8 0C600 0 557 0 514.2 0C471.3 0 428.7 0 385.8 0C343 0 300 0 257.2 0C214.3 0 171.7 0 128.8 0C86 0 43 0 21.5 0L0 0Z" fill="#2b3163"></path><path d="M0 107L21.5 109.5C43 112 86 117 128.8 125C171.7 133 214.3 144 257.2 150C300 156 343 157 385.8 148C428.7 139 471.3 120 514.2 113.3C557 106.7 600 112.3 642.8 120C685.7 127.7 728.3 137.3 771.2 138.2C814 139 857 131 878.5 127L900 123L900 0L878.5 0C857 0 814 0 771.2 0C728.3 0 685.7 0 642.8 0C600 0 557 0 514.2 0C471.3 0 428.7 0 385.8 0C343 0 300 0 257.2 0C214.3 0 171.7 0 128.8 0C86 0 43 0 21.5 0L0 0Z" fill="#706f94"></path><path d="M0 88L21.5 89.2C43 90.3 86 92.7 128.8 94.5C171.7 96.3 214.3 97.7 257.2 92.7C300 87.7 343 76.3 385.8 72.3C428.7 68.3 471.3 71.7 514.2 72.3C557 73 600 71 642.8 76.3C685.7 81.7 728.3 94.3 771.2 94C814 93.7 857 80.3 878.5 73.7L900 67L900 0L878.5 0C857 0 814 0 771.2 0C728.3 0 685.7 0 642.8 0C600 0 557 0 514.2 0C471.3 0 428.7 0 385.8 0C343 0 300 0 257.2 0C214.3 0 171.7 0 128.8 0C86 0 43 0 21.5 0L0 0Z" fill="#b5b4c8"></path><path d="M0 33L21.5 34.5C43 36 86 39 128.8 43.3C171.7 47.7 214.3 53.3 257.2 57C300 60.7 343 62.3 385.8 61.2C428.7 60 471.3 56 514.2 56.3C557 56.7 600 61.3 642.8 65.7C685.7 70 728.3 74 771.2 68.7C814 63.3 857 48.7 878.5 41.3L900 34L900 0L878.5 0C857 0 814 0 771.2 0C728.3 0 685.7 0 642.8 0C600 0 557 0 514.2 0C471.3 0 428.7 0 385.8 0C343 0 300 0 257.2 0C214.3 0 171.7 0 128.8 0C86 0 43 0 21.5 0L0 0Z" fill="#ffffff"></path></svg>