<svg id="visual" viewBox="0 0 1800 1200" width="1800" height="1200" xmlns="http://www.w3.org/2000/svg" xmlns:xlink="http://www.w3.org/1999/xlink" version="1.1"><g stroke-width="1" stroke-linejoin="bevel"><path d="M906.1 565L991.8 589L1038.9 497Z" fill="#e7aeac" stroke="#e7aeac"></path><path d="M991.8 589L1053.8 549L1038.9 497Z" fill="#724e7a" stroke="#724e7a"></path><path d="M991.8 589L1027.9 599L1053.8 549Z" fill="#bb8094" stroke="#bb8094"></path><path d="M1038.9 497L997.8 388L906.1 565Z" fill="#d99ea3" stroke="#d99ea3"></path><path d="M997.8 388L934.9 357L906.1 565Z" fill="#bb8094" stroke="#bb8094"></path><path d="M806.2 392L781.2 531L906.1 565Z" fill="#724e7a" stroke="#724e7a"></path><path d="M906.1 565L914.9 746L991.8 589Z" fill="#453a6b" stroke="#453a6b"></path><path d="M991.8 589L1014.8 768L1027.9 599Z" fill="#e7aeac" stroke="#e7aeac"></path><path d="M781.2 531L782.1 590L906.1 565Z" fill="#cb8f9b" stroke="#cb8f9b"></path><path d="M1138.7 621L1159.7 553L1053.8 549Z" fill="#cb8f9b" stroke="#cb8f9b"></path><path d="M1053.8 549L1159.7 553L1038.9 497Z" fill="#ab728d" stroke="#ab728d"></path><path d="M1038.9 497L1196.7 369L997.8 388Z" fill="#5c4373" stroke="#5c4373"></path><path d="M1014.8 768L1138.7 621L1027.9 599Z" fill="#996587" stroke="#996587"></path><path d="M1027.9 599L1138.7 621L1053.8 549Z" fill="#d99ea3" stroke="#d99ea3"></path><path d="M934.9 357L806.2 392L906.1 565Z" fill="#cb8f9b" stroke="#cb8f9b"></path><path d="M1138.7 621L1179.6 544L1159.7 553Z" fill="#bb8094" stroke="#bb8094"></path><path d="M1159.7 553L1179.6 544L1038.9 497Z" fill="#d99ea3" stroke="#d99ea3"></path><path d="M934.9 357L804.1 374L806.2 392Z" fill="#453a6b" stroke="#453a6b"></path><path d="M806.2 392L701.3 458L781.2 531Z" fill="#ab728d" stroke="#ab728d"></path><path d="M774.2 669L914.9 746L906.1 565Z" fill="#e7aeac" stroke="#e7aeac"></path><path d="M700.3 613L774.2 669L782.1 590Z" fill="#2b3163" stroke="#2b3163"></path><path d="M782.1 590L774.2 669L906.1 565Z" fill="#724e7a" stroke="#724e7a"></path><path d="M914.9 746L1014.8 768L991.8 589Z" fill="#ab728d" stroke="#ab728d"></path><path d="M717.2 330L701.3 458L806.2 392Z" fill="#724e7a" stroke="#724e7a"></path><path d="M687.2 573L700.3 613L782.1 590Z" fill="#e7aeac" stroke="#e7aeac"></path><path d="M1179.6 544L1196.7 369L1038.9 497Z" fill="#453a6b" stroke="#453a6b"></path><path d="M934.1 222L891.9 242L934.9 357Z" fill="#e7aeac" stroke="#e7aeac"></path><path d="M891.9 242L818.1 284L934.9 357Z" fill="#d99ea3" stroke="#d99ea3"></path><path d="M934.9 357L818.1 284L804.1 374Z" fill="#ab728d" stroke="#ab728d"></path><path d="M804.1 374L717.2 330L806.2 392Z" fill="#724e7a" stroke="#724e7a"></path><path d="M687.2 573L782.1 590L781.2 531Z" fill="#724e7a" stroke="#724e7a"></path><path d="M701.3 458L687.2 573L781.2 531Z" fill="#d99ea3" stroke="#d99ea3"></path><path d="M1138.7 621L1248.7 541L1179.6 544Z" fill="#5c4373" stroke="#5c4373"></path><path d="M1179.6 544L1278.6 454L1196.7 369Z" fill="#996587" stroke="#996587"></path><path d="M1208.6 734L1248.7 541L1138.7 621Z" fill="#865981" stroke="#865981"></path><path d="M1094.8 263L934.9 357L997.8 388Z" fill="#e7aeac" stroke="#e7aeac"></path><path d="M1196.7 369L1094.8 263L997.8 388Z" fill="#bb8094" stroke="#bb8094"></path><path d="M700.3 613L754.2 717L774.2 669Z" fill="#2b3163" stroke="#2b3163"></path><path d="M774.2 669L812.1 782L914.9 746Z" fill="#bb8094" stroke="#bb8094"></path><path d="M1003.8 872L1036.9 816L1014.8 768Z" fill="#5c4373" stroke="#5c4373"></path><path d="M1094.8 263L934.1 222L934.9 357Z" fill="#bb8094" stroke="#bb8094"></path><path d="M754.2 717L812.1 782L774.2 669Z" fill="#2b3163" stroke="#2b3163"></path><path d="M1003.8 872L1014.8 768L914.9 746Z" fill="#ab728d" stroke="#ab728d"></path><path d="M1014.8 768L1208.6 734L1138.7 621Z" fill="#453a6b" stroke="#453a6b"></path><path d="M686.3 249L717.2 330L818.1 284Z" fill="#865981" stroke="#865981"></path><path d="M818.1 284L717.2 330L804.1 374Z" fill="#e7aeac" stroke="#e7aeac"></path><path d="M1248.7 541L1278.6 454L1179.6 544Z" fill="#5c4373" stroke="#5c4373"></path><path d="M1196.7 369L1210.7 277L1094.8 263Z" fill="#5c4373" stroke="#5c4373"></path><path d="M812.1 782L856.1 822L914.9 746Z" fill="#bb8094" stroke="#bb8094"></path><path d="M1153.7 824L1208.6 734L1014.8 768Z" fill="#cb8f9b" stroke="#cb8f9b"></path><path d="M1248.7 541L1360.6 514L1278.6 454Z" fill="#865981" stroke="#865981"></path><path d="M754.2 717L793.1 808L812.1 782Z" fill="#ab728d" stroke="#ab728d"></path><path d="M812.1 782L793.1 808L856.1 822Z" fill="#e7aeac" stroke="#e7aeac"></path><path d="M632.3 757L793.1 808L754.2 717Z" fill="#724e7a" stroke="#724e7a"></path><path d="M1416.5 301L1210.7 277L1196.7 369Z" fill="#5c4373" stroke="#5c4373"></path><path d="M1094.8 263L963.9 156L934.1 222Z" fill="#d99ea3" stroke="#d99ea3"></path><path d="M717.2 330L628.3 429L701.3 458Z" fill="#e7aeac" stroke="#e7aeac"></path><path d="M701.3 458L628.3 429L687.2 573Z" fill="#453a6b" stroke="#453a6b"></path><path d="M583.3 678L632.3 757L700.3 613Z" fill="#724e7a" stroke="#724e7a"></path><path d="M897.9 889L1003.8 872L914.9 746Z" fill="#5c4373" stroke="#5c4373"></path><path d="M1036.9 816L1153.7 824L1014.8 768Z" fill="#2b3163" stroke="#2b3163"></path><path d="M897.9 889L914.9 746L856.1 822Z" fill="#2b3163" stroke="#2b3163"></path><path d="M1003.8 872L1153.7 824L1036.9 816Z" fill="#d99ea3" stroke="#d99ea3"></path><path d="M934.1 222L909.1 154L891.9 242Z" fill="#5c4373" stroke="#5c4373"></path><path d="M891.9 242L795.2 87L818.1 284Z" fill="#865981" stroke="#865981"></path><path d="M1040.8 115L963.9 156L1094.8 263Z" fill="#453a6b" stroke="#453a6b"></path><path d="M963.9 156L909.1 154L934.1 222Z" fill="#865981" stroke="#865981"></path><path d="M793.1 808L897.9 889L856.1 822Z" fill="#ab728d" stroke="#ab728d"></path><path d="M678.2 186L686.3 249L818.1 284Z" fill="#5c4373" stroke="#5c4373"></path><path d="M717.2 330L546.4 389L628.3 429Z" fill="#996587" stroke="#996587"></path><path d="M1333.6 732L1360.6 514L1248.7 541Z" fill="#5c4373" stroke="#5c4373"></path><path d="M1416.5 301L1299.5 214L1210.7 277Z" fill="#e7aeac" stroke="#e7aeac"></path><path d="M1291.5 741L1248.7 541L1208.6 734Z" fill="#d99ea3" stroke="#d99ea3"></path><path d="M1299.5 843L1291.5 741L1208.6 734Z" fill="#d99ea3" stroke="#d99ea3"></path><path d="M1299.5 214L1219.6 211L1210.7 277Z" fill="#e7aeac" stroke="#e7aeac"></path><path d="M1210.7 277L1219.6 211L1094.8 263Z" fill="#d99ea3" stroke="#d99ea3"></path><path d="M897.9 889L998.8 915L1003.8 872Z" fill="#865981" stroke="#865981"></path><path d="M1003.8 872L998.8 915L1153.7 824Z" fill="#453a6b" stroke="#453a6b"></path><path d="M546.4 389L562.4 470L628.3 429Z" fill="#bb8094" stroke="#bb8094"></path><path d="M628.3 429L562.4 470L687.2 573Z" fill="#5c4373" stroke="#5c4373"></path><path d="M700.3 613L632.3 757L754.2 717Z" fill="#ab728d" stroke="#ab728d"></path><path d="M1135.7 118L1040.8 115L1094.8 263Z" fill="#cb8f9b" stroke="#cb8f9b"></path><path d="M963.9 156L990.9 18L909.1 154Z" fill="#5c4373" stroke="#5c4373"></path><path d="M583.3 678L700.3 613L687.2 573Z" fill="#bb8094" stroke="#bb8094"></path><path d="M919.1 1021L944.9 962L897.9 889Z" fill="#996587" stroke="#996587"></path><path d="M553.4 563L583.3 678L687.2 573Z" fill="#2b3163" stroke="#2b3163"></path><path d="M562.4 470L553.4 563L687.2 573Z" fill="#d99ea3" stroke="#d99ea3"></path><path d="M1299.5 843L1333.6 732L1291.5 741Z" fill="#cb8f9b" stroke="#cb8f9b"></path><path d="M1291.5 741L1333.6 732L1248.7 541Z" fill="#724e7a" stroke="#724e7a"></path><path d="M1299.5 843L1208.6 734L1153.7 824Z" fill="#724e7a" stroke="#724e7a"></path><path d="M1436.5 585L1391.5 490L1360.6 514Z" fill="#2b3163" stroke="#2b3163"></path><path d="M1360.6 514L1391.5 490L1278.6 454Z" fill="#2b3163" stroke="#2b3163"></path><path d="M445.4 671L573.4 703L583.3 678Z" fill="#865981" stroke="#865981"></path><path d="M583.3 678L573.4 703L632.3 757Z" fill="#453a6b" stroke="#453a6b"></path><path d="M1219.6 211L1135.7 118L1094.8 263Z" fill="#bb8094" stroke="#bb8094"></path><path d="M686.3 249L546.4 389L717.2 330Z" fill="#996587" stroke="#996587"></path><path d="M383.5 535L445.4 671L553.4 563Z" fill="#996587" stroke="#996587"></path><path d="M795.2 87L891.9 242L909.1 154Z" fill="#bb8094" stroke="#bb8094"></path><path d="M795.2 87L678.2 186L818.1 284Z" fill="#ab728d" stroke="#ab728d"></path><path d="M686.3 249L567.3 200L546.4 389Z" fill="#453a6b" stroke="#453a6b"></path><path d="M710.3 914L897.9 889L793.1 808Z" fill="#e7aeac" stroke="#e7aeac"></path><path d="M897.9 889L944.9 962L998.8 915Z" fill="#d99ea3" stroke="#d99ea3"></path><path d="M998.8 915L1209.7 896L1153.7 824Z" fill="#5c4373" stroke="#5c4373"></path><path d="M1135.7 118L1063.8 83L1040.8 115Z" fill="#724e7a" stroke="#724e7a"></path><path d="M1040.8 115L990.9 18L963.9 156Z" fill="#bb8094" stroke="#bb8094"></path><path d="M1191.7 1001L1209.7 896L998.8 915Z" fill="#2b3163" stroke="#2b3163"></path><path d="M1416.5 301L1196.7 369L1278.6 454Z" fill="#453a6b" stroke="#453a6b"></path><path d="M1219.6 211L1204.6 121L1135.7 118Z" fill="#724e7a" stroke="#724e7a"></path><path d="M1299.5 214L1204.6 121L1219.6 211Z" fill="#724e7a" stroke="#724e7a"></path><path d="M1135.7 118L1086.7 47L1063.8 83Z" fill="#d99ea3" stroke="#d99ea3"></path><path d="M823.2 0L795.2 87L909.1 154Z" fill="#cb8f9b" stroke="#cb8f9b"></path><path d="M1209.7 896L1299.5 843L1153.7 824Z" fill="#e7aeac" stroke="#e7aeac"></path><path d="M636.3 918L710.3 914L632.3 757Z" fill="#724e7a" stroke="#724e7a"></path><path d="M632.3 757L710.3 914L793.1 808Z" fill="#cb8f9b" stroke="#cb8f9b"></path><path d="M1403.5 772L1436.5 585L1333.6 732Z" fill="#2b3163" stroke="#2b3163"></path><path d="M1333.6 732L1436.5 585L1360.6 514Z" fill="#5c4373" stroke="#5c4373"></path><path d="M1391.5 490L1436.4 415L1278.6 454Z" fill="#d99ea3" stroke="#d99ea3"></path><path d="M1451.5 463L1436.4 415L1391.5 490Z" fill="#453a6b" stroke="#453a6b"></path><path d="M1217.7 0L1086.7 47L1135.7 118Z" fill="#2b3163" stroke="#2b3163"></path><path d="M1063.8 83L990.9 18L1040.8 115Z" fill="#865981" stroke="#865981"></path><path d="M1436.5 585L1451.5 463L1391.5 490Z" fill="#ab728d" stroke="#ab728d"></path><path d="M445.4 671L537.4 762L573.4 703Z" fill="#2b3163" stroke="#2b3163"></path><path d="M573.4 703L537.4 762L632.3 757Z" fill="#996587" stroke="#996587"></path><path d="M445.4 671L583.3 678L553.4 563Z" fill="#996587" stroke="#996587"></path><path d="M795.2 87L679.3 108L678.2 186Z" fill="#cb8f9b" stroke="#cb8f9b"></path><path d="M678.2 186L567.3 200L686.3 249Z" fill="#cb8f9b" stroke="#cb8f9b"></path><path d="M1086.7 47L990.9 18L1063.8 83Z" fill="#e7aeac" stroke="#e7aeac"></path><path d="M795.2 87L768.1 0L679.3 108Z" fill="#e7aeac" stroke="#e7aeac"></path><path d="M1436.4 415L1416.5 301L1278.6 454Z" fill="#453a6b" stroke="#453a6b"></path><path d="M1299.5 214L1285.6 76L1204.6 121Z" fill="#5c4373" stroke="#5c4373"></path><path d="M1538.4 279L1416.5 301L1436.4 415Z" fill="#d99ea3" stroke="#d99ea3"></path><path d="M919.1 1021L972.9 1018L944.9 962Z" fill="#cb8f9b" stroke="#cb8f9b"></path><path d="M944.9 962L972.9 1018L998.8 915Z" fill="#724e7a" stroke="#724e7a"></path><path d="M726.2 981L919.1 1021L897.9 889Z" fill="#bb8094" stroke="#bb8094"></path><path d="M1299.5 843L1403.5 772L1333.6 732Z" fill="#ab728d" stroke="#ab728d"></path><path d="M679.3 108L567.3 200L678.2 186Z" fill="#cb8f9b" stroke="#cb8f9b"></path><path d="M1003.9 0L990.8 0L990.9 18Z" fill="#996587" stroke="#996587"></path><path d="M990.9 18L823.2 0L909.1 154Z" fill="#724e7a" stroke="#724e7a"></path><path d="M537.4 762L636.3 918L632.3 757Z" fill="#e7aeac" stroke="#e7aeac"></path><path d="M710.3 914L726.2 981L897.9 889Z" fill="#453a6b" stroke="#453a6b"></path><path d="M1086.7 47L1003.9 0L990.9 18Z" fill="#453a6b" stroke="#453a6b"></path><path d="M567.3 200L484.5 321L546.4 389Z" fill="#d99ea3" stroke="#d99ea3"></path><path d="M375.5 423L383.5 535L562.4 470Z" fill="#bb8094" stroke="#bb8094"></path><path d="M636.3 918L726.2 981L710.3 914Z" fill="#865981" stroke="#865981"></path><path d="M1007.8 1176L1047.8 1034L972.9 1018Z" fill="#e7aeac" stroke="#e7aeac"></path><path d="M972.9 1018L1047.8 1034L998.8 915Z" fill="#5c4373" stroke="#5c4373"></path><path d="M1209.7 896L1349.6 914L1299.5 843Z" fill="#996587" stroke="#996587"></path><path d="M1299.5 843L1349.6 914L1403.5 772Z" fill="#453a6b" stroke="#453a6b"></path><path d="M1535.2 620L1490.4 574L1436.5 585Z" fill="#ab728d" stroke="#ab728d"></path><path d="M1436.5 585L1490.4 574L1451.5 463Z" fill="#e7aeac" stroke="#e7aeac"></path><path d="M1439.5 134L1408.4 213L1544.4 169Z" fill="#ab728d" stroke="#ab728d"></path><path d="M1047.8 1034L1191.7 1001L998.8 915Z" fill="#996587" stroke="#996587"></path><path d="M990.8 0L823.2 0L990.9 18Z" fill="#5c4373" stroke="#5c4373"></path><path d="M1520.2 446L1436.4 415L1451.5 463Z" fill="#ab728d" stroke="#ab728d"></path><path d="M1416.5 301L1408.4 213L1299.5 214Z" fill="#ab728d" stroke="#ab728d"></path><path d="M1204.6 121L1217.7 0L1135.7 118Z" fill="#724e7a" stroke="#724e7a"></path><path d="M1086.7 47L1217.7 0L1003.9 0Z" fill="#d99ea3" stroke="#d99ea3"></path><path d="M383.5 535L553.4 563L562.4 470Z" fill="#865981" stroke="#865981"></path><path d="M537.4 762L490.5 780L636.3 918Z" fill="#bb8094" stroke="#bb8094"></path><path d="M445.4 671L490.5 780L537.4 762Z" fill="#e7aeac" stroke="#e7aeac"></path><path d="M1439.5 134L1285.6 76L1299.5 214Z" fill="#e7aeac" stroke="#e7aeac"></path><path d="M1262.6 1009L1349.6 914L1209.7 896Z" fill="#453a6b" stroke="#453a6b"></path><path d="M1403.5 772L1475.4 776L1436.5 585Z" fill="#996587" stroke="#996587"></path><path d="M823.2 0L768.1 0L795.2 87Z" fill="#e7aeac" stroke="#e7aeac"></path><path d="M452.4 110L484.5 218L567.3 200Z" fill="#724e7a" stroke="#724e7a"></path><path d="M1490.4 574L1520.2 446L1451.5 463Z" fill="#5c4373" stroke="#5c4373"></path><path d="M567.3 200L484.5 218L484.5 321Z" fill="#724e7a" stroke="#724e7a"></path><path d="M375.5 423L562.4 470L546.4 389Z" fill="#865981" stroke="#865981"></path><path d="M525.4 62L567.3 200L679.3 108Z" fill="#cb8f9b" stroke="#cb8f9b"></path><path d="M1349.6 914L1475.4 776L1403.5 772Z" fill="#5c4373" stroke="#5c4373"></path><path d="M1490.4 574L1597.2 545L1520.2 446Z" fill="#996587" stroke="#996587"></path><path d="M584.4 961L726.2 981L636.3 918Z" fill="#453a6b" stroke="#453a6b"></path><path d="M706.2 1099L766.2 1055L726.2 981Z" fill="#cb8f9b" stroke="#cb8f9b"></path><path d="M726.2 981L766.2 1055L919.1 1021Z" fill="#453a6b" stroke="#453a6b"></path><path d="M919.1 1021L1007.8 1176L972.9 1018Z" fill="#865981" stroke="#865981"></path><path d="M1191.7 1001L1262.6 1009L1209.7 896Z" fill="#ab728d" stroke="#ab728d"></path><path d="M1317.5 1027L1262.6 1009L1284.6 1116Z" fill="#996587" stroke="#996587"></path><path d="M1232.6 0L1217.7 0L1285.6 76Z" fill="#2b3163" stroke="#2b3163"></path><path d="M1285.6 76L1217.7 0L1204.6 121Z" fill="#cb8f9b" stroke="#cb8f9b"></path><path d="M1475.4 776L1535.2 620L1436.5 585Z" fill="#e7aeac" stroke="#e7aeac"></path><path d="M1535.2 620L1539.4 594L1490.4 574Z" fill="#724e7a" stroke="#724e7a"></path><path d="M1308.5 0L1232.6 0L1285.6 76Z" fill="#e7aeac" stroke="#e7aeac"></path><path d="M400.6 342L546.4 389L484.5 321Z" fill="#865981" stroke="#865981"></path><path d="M445.4 671L370.5 731L490.5 780Z" fill="#bb8094" stroke="#bb8094"></path><path d="M490.5 780L584.4 961L636.3 918Z" fill="#bb8094" stroke="#bb8094"></path><path d="M484.5 218L400.6 342L484.5 321Z" fill="#453a6b" stroke="#453a6b"></path><path d="M400.6 342L375.5 423L546.4 389Z" fill="#2b3163" stroke="#2b3163"></path><path d="M1538.4 279L1408.4 213L1416.5 301Z" fill="#453a6b" stroke="#453a6b"></path><path d="M1408.4 213L1439.5 134L1299.5 214Z" fill="#453a6b" stroke="#453a6b"></path><path d="M706.2 1099L839.1 1115L766.2 1055Z" fill="#cb8f9b" stroke="#cb8f9b"></path><path d="M766.2 1055L839.1 1115L919.1 1021Z" fill="#ab728d" stroke="#ab728d"></path><path d="M1202.7 1093L1262.6 1009L1191.7 1001Z" fill="#865981" stroke="#865981"></path><path d="M318.6 494L352.5 561L383.5 535Z" fill="#5c4373" stroke="#5c4373"></path><path d="M383.5 535L352.5 561L445.4 671Z" fill="#d99ea3" stroke="#d99ea3"></path><path d="M487.5 949L553.4 991L584.4 961Z" fill="#bb8094" stroke="#bb8094"></path><path d="M1202.7 1093L1191.7 1001L1047.8 1034Z" fill="#2b3163" stroke="#2b3163"></path><path d="M1262.6 1009L1317.5 1027L1349.6 914Z" fill="#453a6b" stroke="#453a6b"></path><path d="M1536.4 975L1540.4 801L1475.4 776Z" fill="#2b3163" stroke="#2b3163"></path><path d="M1520.2 446L1538.4 279L1436.4 415Z" fill="#bb8094" stroke="#bb8094"></path><path d="M1626.2 382L1538.4 279L1520.2 446Z" fill="#996587" stroke="#996587"></path><path d="M1397.4 0L1308.5 0L1285.6 76Z" fill="#ab728d" stroke="#ab728d"></path><path d="M1107.8 1200L1202.7 1093L1047.8 1034Z" fill="#d99ea3" stroke="#d99ea3"></path><path d="M487.5 949L584.4 961L490.5 780Z" fill="#bb8094" stroke="#bb8094"></path><path d="M625.3 1068L706.2 1099L726.2 981Z" fill="#ab728d" stroke="#ab728d"></path><path d="M352.5 561L370.5 731L445.4 671Z" fill="#724e7a" stroke="#724e7a"></path><path d="M1641.1 577L1597.2 545L1539.4 594Z" fill="#453a6b" stroke="#453a6b"></path><path d="M1539.4 594L1597.2 545L1490.4 574Z" fill="#2b3163" stroke="#2b3163"></path><path d="M1641.1 577L1539.4 594L1535.2 620Z" fill="#5c4373" stroke="#5c4373"></path><path d="M584.3 0L525.4 62L679.3 108Z" fill="#996587" stroke="#996587"></path><path d="M276.6 228L275.6 283L400.6 342Z" fill="#724e7a" stroke="#724e7a"></path><path d="M625.3 1068L726.2 981L584.4 961Z" fill="#bb8094" stroke="#bb8094"></path><path d="M1536.4 975L1475.4 776L1349.6 914Z" fill="#996587" stroke="#996587"></path><path d="M1475.4 776L1577.2 750L1535.2 620Z" fill="#cb8f9b" stroke="#cb8f9b"></path><path d="M768.1 0L584.3 0L679.3 108Z" fill="#e7aeac" stroke="#e7aeac"></path><path d="M321.6 790L487.5 949L490.5 780Z" fill="#865981" stroke="#865981"></path><path d="M553.4 991L625.3 1068L584.4 961Z" fill="#453a6b" stroke="#453a6b"></path><path d="M579.4 1139L625.3 1068L553.4 991Z" fill="#e7aeac" stroke="#e7aeac"></path><path d="M228.8 488L318.6 494L375.5 423Z" fill="#865981" stroke="#865981"></path><path d="M375.5 423L318.6 494L383.5 535Z" fill="#5c4373" stroke="#5c4373"></path><path d="M352.5 561L293.8 596L370.5 731Z" fill="#d99ea3" stroke="#d99ea3"></path><path d="M275.6 283L375.5 423L400.6 342Z" fill="#e7aeac" stroke="#e7aeac"></path><path d="M543.4 0L504.5 56L525.4 62Z" fill="#ab728d" stroke="#ab728d"></path><path d="M525.4 62L452.4 110L567.3 200Z" fill="#453a6b" stroke="#453a6b"></path><path d="M1540.4 801L1577.2 750L1475.4 776Z" fill="#cb8f9b" stroke="#cb8f9b"></path><path d="M504.5 56L452.4 110L525.4 62Z" fill="#2b3163" stroke="#2b3163"></path><path d="M940.9 1200L919.1 1021L839.1 1115Z" fill="#996587" stroke="#996587"></path><path d="M940.9 1200L1007.8 1176L919.1 1021Z" fill="#e7aeac" stroke="#e7aeac"></path><path d="M1284.6 1116L1391.4 1023L1317.5 1027Z" fill="#d99ea3" stroke="#d99ea3"></path><path d="M1317.5 1027L1391.4 1023L1349.6 914Z" fill="#ab728d" stroke="#ab728d"></path><path d="M1540.4 801L1744.1 840L1577.2 750Z" fill="#cb8f9b" stroke="#cb8f9b"></path><path d="M1284.6 1116L1262.6 1009L1202.7 1093Z" fill="#e7aeac" stroke="#e7aeac"></path><path d="M318.6 494L304.6 535L352.5 561Z" fill="#453a6b" stroke="#453a6b"></path><path d="M584.3 0L543.4 0L525.4 62Z" fill="#5c4373" stroke="#5c4373"></path><path d="M250.6 110L296.8 190L452.4 110Z" fill="#ab728d" stroke="#ab728d"></path><path d="M1439.5 134L1397.4 0L1285.6 76Z" fill="#2b3163" stroke="#2b3163"></path><path d="M1553.2 0L1397.4 0L1439.5 134Z" fill="#724e7a" stroke="#724e7a"></path><path d="M1714.1 446L1626.2 382L1597.2 545Z" fill="#865981" stroke="#865981"></path><path d="M1597.2 545L1626.2 382L1520.2 446Z" fill="#2b3163" stroke="#2b3163"></path><path d="M1538.4 279L1544.4 169L1408.4 213Z" fill="#724e7a" stroke="#724e7a"></path><path d="M1607.1 221L1544.4 169L1538.4 279Z" fill="#5c4373" stroke="#5c4373"></path><path d="M304.6 535L293.8 596L352.5 561Z" fill="#2b3163" stroke="#2b3163"></path><path d="M301.6 917L494.5 1009L487.5 949Z" fill="#cb8f9b" stroke="#cb8f9b"></path><path d="M1577.2 750L1641.1 577L1535.2 620Z" fill="#cb8f9b" stroke="#cb8f9b"></path><path d="M1251.6 1200L1284.6 1116L1202.7 1093Z" fill="#453a6b" stroke="#453a6b"></path><path d="M1739.1 661L1643.2 573L1641.1 577Z" fill="#5c4373" stroke="#5c4373"></path><path d="M1641.1 577L1643.2 573L1597.2 545Z" fill="#bb8094" stroke="#bb8094"></path><path d="M321.6 790L490.5 780L370.5 731Z" fill="#ab728d" stroke="#ab728d"></path><path d="M487.5 949L494.5 1009L553.4 991Z" fill="#5c4373" stroke="#5c4373"></path><path d="M905.1 1200L839.1 1115L687.2 1200Z" fill="#453a6b" stroke="#453a6b"></path><path d="M905.1 1200L940.9 1200L839.1 1115Z" fill="#724e7a" stroke="#724e7a"></path><path d="M1007.8 1176L1107.8 1200L1047.8 1034Z" fill="#865981" stroke="#865981"></path><path d="M687.2 1200L839.1 1115L706.2 1099Z" fill="#d99ea3" stroke="#d99ea3"></path><path d="M579.4 1139L706.2 1099L625.3 1068Z" fill="#2b3163" stroke="#2b3163"></path><path d="M940.9 1200L1107.8 1200L1007.8 1176Z" fill="#d99ea3" stroke="#d99ea3"></path><path d="M283.8 791L321.6 790L370.5 731Z" fill="#996587" stroke="#996587"></path><path d="M1676.1 265L1607.1 221L1538.4 279Z" fill="#996587" stroke="#996587"></path><path d="M1544.4 169L1553.2 0L1439.5 134Z" fill="#e7aeac" stroke="#e7aeac"></path><path d="M296.8 190L484.5 218L452.4 110Z" fill="#cb8f9b" stroke="#cb8f9b"></path><path d="M296.8 190L400.6 342L484.5 218Z" fill="#d99ea3" stroke="#d99ea3"></path><path d="M318.6 494L228.8 488L304.6 535Z" fill="#5c4373" stroke="#5c4373"></path><path d="M304.6 535L185.9 531L293.8 596Z" fill="#996587" stroke="#996587"></path><path d="M1391.4 1023L1536.4 975L1349.6 914Z" fill="#e7aeac" stroke="#e7aeac"></path><path d="M1771.1 532L1714.1 446L1643.2 573Z" fill="#cb8f9b" stroke="#cb8f9b"></path><path d="M1596.2 984L1536.4 975L1585.2 1034Z" fill="#e7aeac" stroke="#e7aeac"></path><path d="M445.4 1200L579.4 1139L494.5 1009Z" fill="#996587" stroke="#996587"></path><path d="M494.5 1009L579.4 1139L553.4 991Z" fill="#bb8094" stroke="#bb8094"></path><path d="M228.6 765L283.8 791L370.5 731Z" fill="#cb8f9b" stroke="#cb8f9b"></path><path d="M321.6 790L301.6 917L487.5 949Z" fill="#996587" stroke="#996587"></path><path d="M228.6 765L370.5 731L293.8 596Z" fill="#d99ea3" stroke="#d99ea3"></path><path d="M625.3 1200L687.2 1200L706.2 1099Z" fill="#996587" stroke="#996587"></path><path d="M275.6 283L228.8 488L375.5 423Z" fill="#d99ea3" stroke="#d99ea3"></path><path d="M1107.8 1200L1251.6 1200L1202.7 1093Z" fill="#ab728d" stroke="#ab728d"></path><path d="M1284.6 1116L1445.5 1140L1391.4 1023Z" fill="#5c4373" stroke="#5c4373"></path><path d="M1251.6 1200L1254.7 1200L1284.6 1116Z" fill="#ab728d" stroke="#ab728d"></path><path d="M396.6 0L452.4 110L504.5 56Z" fill="#2b3163" stroke="#2b3163"></path><path d="M62.9 473L185.9 531L228.8 488Z" fill="#5c4373" stroke="#5c4373"></path><path d="M296.8 190L276.6 228L400.6 342Z" fill="#d99ea3" stroke="#d99ea3"></path><path d="M1643.2 573L1714.1 446L1597.2 545Z" fill="#bb8094" stroke="#bb8094"></path><path d="M1626.2 382L1676.1 265L1538.4 279Z" fill="#996587" stroke="#996587"></path><path d="M1739.1 661L1641.1 577L1577.2 750Z" fill="#865981" stroke="#865981"></path><path d="M1800 325L1676.1 265L1626.2 382Z" fill="#2b3163" stroke="#2b3163"></path><path d="M1607.1 221L1610.2 119L1544.4 169Z" fill="#5c4373" stroke="#5c4373"></path><path d="M1725.1 133L1610.2 119L1607.1 221Z" fill="#724e7a" stroke="#724e7a"></path><path d="M445.4 1200L625.3 1200L579.4 1139Z" fill="#d99ea3" stroke="#d99ea3"></path><path d="M579.4 1139L625.3 1200L706.2 1099Z" fill="#ab728d" stroke="#ab728d"></path><path d="M543.4 0L396.6 0L504.5 56Z" fill="#5c4373" stroke="#5c4373"></path><path d="M165.8 233L275.6 283L276.6 228Z" fill="#d99ea3" stroke="#d99ea3"></path><path d="M245.8 884L301.6 917L283.8 791Z" fill="#ab728d" stroke="#ab728d"></path><path d="M283.8 791L301.6 917L321.6 790Z" fill="#453a6b" stroke="#453a6b"></path><path d="M131.8 630L228.6 765L293.8 596Z" fill="#2b3163" stroke="#2b3163"></path><path d="M174.8 309L228.8 488L275.6 283Z" fill="#ab728d" stroke="#ab728d"></path><path d="M228.8 488L185.9 531L304.6 535Z" fill="#d99ea3" stroke="#d99ea3"></path><path d="M1610.2 119L1553.2 0L1544.4 169Z" fill="#d99ea3" stroke="#d99ea3"></path><path d="M1445.5 1140L1536.4 975L1391.4 1023Z" fill="#865981" stroke="#865981"></path><path d="M1536.4 975L1596.2 984L1540.4 801Z" fill="#e7aeac" stroke="#e7aeac"></path><path d="M1391.4 1187L1445.5 1140L1284.6 1116Z" fill="#865981" stroke="#865981"></path><path d="M1744.1 840L1739.1 661L1577.2 750Z" fill="#5c4373" stroke="#5c4373"></path><path d="M396.6 0L365.5 0L452.4 110Z" fill="#724e7a" stroke="#724e7a"></path><path d="M1254.7 1200L1391.4 1187L1284.6 1116Z" fill="#e7aeac" stroke="#e7aeac"></path><path d="M1739.1 661L1771.1 532L1643.2 573Z" fill="#bb8094" stroke="#bb8094"></path><path d="M1714.1 446L1800 325L1626.2 382Z" fill="#d99ea3" stroke="#d99ea3"></path><path d="M1445.5 1140L1585.2 1034L1536.4 975Z" fill="#5c4373" stroke="#5c4373"></path><path d="M1596.2 984L1744.1 840L1540.4 801Z" fill="#453a6b" stroke="#453a6b"></path><path d="M1564.2 1152L1585.2 1034L1445.5 1140Z" fill="#ab728d" stroke="#ab728d"></path><path d="M181.9 857L240.6 873L228.6 765Z" fill="#e7aeac" stroke="#e7aeac"></path><path d="M228.6 765L240.6 873L283.8 791Z" fill="#453a6b" stroke="#453a6b"></path><path d="M347.5 1115L445.4 1200L494.5 1009Z" fill="#bb8094" stroke="#bb8094"></path><path d="M240.6 873L245.8 884L283.8 791Z" fill="#724e7a" stroke="#724e7a"></path><path d="M1254.7 1200L1398.5 1200L1391.4 1187Z" fill="#724e7a" stroke="#724e7a"></path><path d="M1391.4 1187L1436.4 1200L1445.5 1140Z" fill="#2b3163" stroke="#2b3163"></path><path d="M169.9 175L276.6 228L296.8 190Z" fill="#bb8094" stroke="#bb8094"></path><path d="M165.8 233L174.8 309L275.6 283Z" fill="#bb8094" stroke="#bb8094"></path><path d="M365.5 0L250.6 110L452.4 110Z" fill="#996587" stroke="#996587"></path><path d="M1398.5 1200L1436.4 1200L1391.4 1187Z" fill="#cb8f9b" stroke="#cb8f9b"></path><path d="M1800 734L1800 533L1739.1 661Z" fill="#bb8094" stroke="#bb8094"></path><path d="M1739.1 661L1800 533L1771.1 532Z" fill="#453a6b" stroke="#453a6b"></path><path d="M1771.1 532L1800 458L1714.1 446Z" fill="#453a6b" stroke="#453a6b"></path><path d="M1676.1 265L1725.1 133L1607.1 221Z" fill="#724e7a" stroke="#724e7a"></path><path d="M1800 533L1800 458L1771.1 532Z" fill="#bb8094" stroke="#bb8094"></path><path d="M1610.2 119L1671.2 17L1553.2 0Z" fill="#5c4373" stroke="#5c4373"></path><path d="M1564.2 1152L1635.1 1027L1585.2 1034Z" fill="#996587" stroke="#996587"></path><path d="M1585.2 1034L1635.1 1027L1596.2 984Z" fill="#996587" stroke="#996587"></path><path d="M62.9 473L131.8 630L185.9 531Z" fill="#2b3163" stroke="#2b3163"></path><path d="M185.9 531L131.8 630L293.8 596Z" fill="#d99ea3" stroke="#d99ea3"></path><path d="M1766.1 865L1744.1 840L1596.2 984Z" fill="#cb8f9b" stroke="#cb8f9b"></path><path d="M169.9 175L165.8 233L276.6 228Z" fill="#724e7a" stroke="#724e7a"></path><path d="M174.8 309L142.9 307L228.8 488Z" fill="#d99ea3" stroke="#d99ea3"></path><path d="M165.8 233L142.9 307L174.8 309Z" fill="#865981" stroke="#865981"></path><path d="M1800 275L1725.1 133L1676.1 265Z" fill="#d99ea3" stroke="#d99ea3"></path><path d="M80.9 688L181.9 857L228.6 765Z" fill="#d99ea3" stroke="#d99ea3"></path><path d="M240.6 873L181.9 857L245.8 884Z" fill="#cb8f9b" stroke="#cb8f9b"></path><path d="M347.5 1115L494.5 1009L301.6 917Z" fill="#d99ea3" stroke="#d99ea3"></path><path d="M1800 458L1800 325L1714.1 446Z" fill="#ab728d" stroke="#ab728d"></path><path d="M347.5 1115L301.6 917L195.9 982Z" fill="#e7aeac" stroke="#e7aeac"></path><path d="M196.8 946L301.6 917L245.8 884Z" fill="#cb8f9b" stroke="#cb8f9b"></path><path d="M1744.1 840L1800 734L1739.1 661Z" fill="#ab728d" stroke="#ab728d"></path><path d="M1725.1 133L1671.2 17L1610.2 119Z" fill="#453a6b" stroke="#453a6b"></path><path d="M250.6 110L169.9 175L296.8 190Z" fill="#ab728d" stroke="#ab728d"></path><path d="M0 286L0 436L142.9 307Z" fill="#5c4373" stroke="#5c4373"></path><path d="M151.9 50L169.9 175L250.6 110Z" fill="#ab728d" stroke="#ab728d"></path><path d="M1800 325L1800 275L1676.1 265Z" fill="#865981" stroke="#865981"></path><path d="M1800 0L1673.1 0L1671.2 17Z" fill="#d99ea3" stroke="#d99ea3"></path><path d="M347.5 1115L426.5 1200L445.4 1200Z" fill="#453a6b" stroke="#453a6b"></path><path d="M1436.4 1200L1564.2 1152L1445.5 1140Z" fill="#cb8f9b" stroke="#cb8f9b"></path><path d="M1635.1 1027L1766.1 865L1596.2 984Z" fill="#453a6b" stroke="#453a6b"></path><path d="M1800 849L1766.1 865L1800 869Z" fill="#e7aeac" stroke="#e7aeac"></path><path d="M1744.1 840L1800 849L1800 734Z" fill="#bb8094" stroke="#bb8094"></path><path d="M1800 81L1671.2 17L1725.1 133Z" fill="#ab728d" stroke="#ab728d"></path><path d="M1671.2 17L1673.1 0L1553.2 0Z" fill="#e7aeac" stroke="#e7aeac"></path><path d="M181.9 857L196.8 946L245.8 884Z" fill="#ab728d" stroke="#ab728d"></path><path d="M195.9 982L196.8 946L63.9 933Z" fill="#ab728d" stroke="#ab728d"></path><path d="M1800 869L1766.1 865L1800 1018Z" fill="#bb8094" stroke="#bb8094"></path><path d="M1766.1 865L1800 849L1744.1 840Z" fill="#e7aeac" stroke="#e7aeac"></path><path d="M63.9 933L196.8 946L181.9 857Z" fill="#d99ea3" stroke="#d99ea3"></path><path d="M196.8 946L195.9 982L301.6 917Z" fill="#453a6b" stroke="#453a6b"></path><path d="M347.5 1115L327.6 1157L426.5 1200Z" fill="#2b3163" stroke="#2b3163"></path><path d="M48.9 667L80.9 688L131.8 630Z" fill="#453a6b" stroke="#453a6b"></path><path d="M131.8 630L80.9 688L228.6 765Z" fill="#ab728d" stroke="#ab728d"></path><path d="M285.8 1200L327.6 1157L228.8 1173Z" fill="#d99ea3" stroke="#d99ea3"></path><path d="M0 452L62.9 473L0 436Z" fill="#724e7a" stroke="#724e7a"></path><path d="M142.9 307L62.9 473L228.8 488Z" fill="#d99ea3" stroke="#d99ea3"></path><path d="M1752.1 1032L1766.1 865L1635.1 1027Z" fill="#bb8094" stroke="#bb8094"></path><path d="M365.5 0L216.8 0L250.6 110Z" fill="#bb8094" stroke="#bb8094"></path><path d="M0 436L62.9 473L142.9 307Z" fill="#bb8094" stroke="#bb8094"></path><path d="M1800 275L1800 119L1725.1 133Z" fill="#724e7a" stroke="#724e7a"></path><path d="M0 627L48.9 667L131.8 630Z" fill="#2b3163" stroke="#2b3163"></path><path d="M0 860L63.9 933L181.9 857Z" fill="#2b3163" stroke="#2b3163"></path><path d="M216.8 0L151.9 50L250.6 110Z" fill="#453a6b" stroke="#453a6b"></path><path d="M1642.1 1200L1752.1 1032L1635.1 1027Z" fill="#5c4373" stroke="#5c4373"></path><path d="M1800 119L1800 81L1725.1 133Z" fill="#2b3163" stroke="#2b3163"></path><path d="M1436.4 1200L1633.2 1200L1564.2 1152Z" fill="#996587" stroke="#996587"></path><path d="M1564.2 1152L1642.1 1200L1635.1 1027Z" fill="#e7aeac" stroke="#e7aeac"></path><path d="M1633.2 1200L1642.1 1200L1564.2 1152Z" fill="#453a6b" stroke="#453a6b"></path><path d="M216.8 0L138.8 26L151.9 50Z" fill="#453a6b" stroke="#453a6b"></path><path d="M0 162L165.8 233L169.9 175Z" fill="#ab728d" stroke="#ab728d"></path><path d="M254.6 1200L285.8 1200L228.8 1173Z" fill="#ab728d" stroke="#ab728d"></path><path d="M327.6 1157L285.8 1200L426.5 1200Z" fill="#865981" stroke="#865981"></path><path d="M327.6 1157L347.5 1115L228.8 1173Z" fill="#453a6b" stroke="#453a6b"></path><path d="M142.9 307L165.8 233L0 286Z" fill="#453a6b" stroke="#453a6b"></path><path d="M62.9 473L0 627L131.8 630Z" fill="#724e7a" stroke="#724e7a"></path><path d="M0 286L165.8 233L0 162Z" fill="#d99ea3" stroke="#d99ea3"></path><path d="M0 452L0 627L62.9 473Z" fill="#d99ea3" stroke="#d99ea3"></path><path d="M0 814L181.9 857L80.9 688Z" fill="#2b3163" stroke="#2b3163"></path><path d="M1800 1085L1800 1018L1752.1 1032Z" fill="#996587" stroke="#996587"></path><path d="M1752.1 1032L1800 1018L1766.1 865Z" fill="#724e7a" stroke="#724e7a"></path><path d="M0 627L0 650L48.9 667Z" fill="#2b3163" stroke="#2b3163"></path><path d="M1800 81L1800 0L1671.2 17Z" fill="#5c4373" stroke="#5c4373"></path><path d="M228.8 1173L347.5 1115L195.9 982Z" fill="#453a6b" stroke="#453a6b"></path><path d="M117.9 1200L228.8 1173L195.9 982Z" fill="#5c4373" stroke="#5c4373"></path><path d="M216.8 0L120.9 0L138.8 26Z" fill="#e7aeac" stroke="#e7aeac"></path><path d="M0 162L169.9 175L0 135Z" fill="#865981" stroke="#865981"></path><path d="M0 814L80.9 688L48.9 667Z" fill="#ab728d" stroke="#ab728d"></path><path d="M169.9 175L151.9 50L0 135Z" fill="#5c4373" stroke="#5c4373"></path><path d="M1642.1 1200L1800 1085L1752.1 1032Z" fill="#724e7a" stroke="#724e7a"></path><path d="M0 650L0 814L48.9 667Z" fill="#ab728d" stroke="#ab728d"></path><path d="M0 814L0 860L181.9 857Z" fill="#d99ea3" stroke="#d99ea3"></path><path d="M63.9 933L0 1008L195.9 982Z" fill="#453a6b" stroke="#453a6b"></path><path d="M0 135L151.9 50L138.8 26Z" fill="#ab728d" stroke="#ab728d"></path><path d="M0 0L0 135L138.8 26Z" fill="#453a6b" stroke="#453a6b"></path><path d="M1642.1 1200L1800 1200L1800 1085Z" fill="#ab728d" stroke="#ab728d"></path><path d="M0 860L0 1008L63.9 933Z" fill="#2b3163" stroke="#2b3163"></path><path d="M228.8 1173L117.9 1200L254.6 1200Z" fill="#5c4373" stroke="#5c4373"></path><path d="M54.9 1163L117.9 1200L195.9 982Z" fill="#2b3163" stroke="#2b3163"></path><path d="M120.9 0L0 0L138.8 26Z" fill="#d99ea3" stroke="#d99ea3"></path><path d="M0 1008L54.9 1163L195.9 982Z" fill="#5c4373" stroke="#5c4373"></path><path d="M0 1008L0 1183L54.9 1163Z" fill="#724e7a" stroke="#724e7a"></path><path d="M54.9 1163L0 1200L117.9 1200Z" fill="#724e7a" stroke="#724e7a"></path><path d="M0 1183L0 1200L54.9 1163Z" fill="#453a6b" stroke="#453a6b"></path></g></svg>