<svg id="visual" viewBox="0 0 900 675" width="900" height="675" xmlns="http://www.w3.org/2000/svg" xmlns:xlink="http://www.w3.org/1999/xlink" version="1.1"><rect width="900" height="675" fill="#ffffff"></rect><g><g transform="translate(56 479)"><path d="M0 -36.8L31.8 -18.4L31.8 18.4L0 36.8L-31.8 18.4L-31.8 -18.4Z" fill="#e7aeac"></path></g><g transform="translate(834 535)"><path d="M0 -28L24.2 -14L24.2 14L0 28L-24.2 14L-24.2 -14Z" fill="#e7aeac"></path></g><g transform="translate(793 33)"><path d="M0 -9L7.8 -4.5L7.8 4.5L0 9L-7.8 4.5L-7.8 -4.5Z" fill="#e7aeac"></path></g><g transform="translate(470 278)"><path d="M0 -18L15.6 -9L15.6 9L0 18L-15.6 9L-15.6 -9Z" fill="#e7aeac"></path></g><g transform="translate(374 358)"><path d="M0 -16L13.9 -8L13.9 8L0 16L-13.9 8L-13.9 -8Z" fill="#e7aeac"></path></g><g transform="translate(653 15)"><path d="M0 -22L19.1 -11L19.1 11L0 22L-19.1 11L-19.1 -11Z" fill="#e7aeac"></path></g><g transform="translate(381 238)"><path d="M0 -23L19.9 -11.5L19.9 11.5L0 23L-19.9 11.5L-19.9 -11.5Z" fill="#e7aeac"></path></g><g transform="translate(551 638)"><path d="M0 -19L16.5 -9.5L16.5 9.5L0 19L-16.5 9.5L-16.5 -9.5Z" fill="#e7aeac"></path></g><g transform="translate(556 301)"><path d="M0 -16L13.9 -8L13.9 8L0 16L-13.9 8L-13.9 -8Z" fill="#e7aeac"></path></g><g transform="translate(572 539)"><path d="M0 -19L16.5 -9.5L16.5 9.5L0 19L-16.5 9.5L-16.5 -9.5Z" fill="#e7aeac"></path></g><g transform="translate(286 565)"><path d="M0 -32L27.7 -16L27.7 16L0 32L-27.7 16L-27.7 -16Z" fill="#e7aeac"></path></g><g transform="translate(270 321)"><path d="M0 -15L13 -7.5L13 7.5L0 15L-13 7.5L-13 -7.5Z" fill="#e7aeac"></path></g><g transform="translate(638 116)"><path d="M0 -20L17.3 -10L17.3 10L0 20L-17.3 10L-17.3 -10Z" fill="#e7aeac"></path></g><g transform="translate(831 210)"><path d="M0 -10L8.7 -5L8.7 5L0 10L-8.7 5L-8.7 -5Z" fill="#e7aeac"></path></g><g transform="translate(752 238)"><path d="M0 -33L28.6 -16.5L28.6 16.5L0 33L-28.6 16.5L-28.6 -16.5Z" fill="#e7aeac"></path></g><g transform="translate(88 174)"><path d="M0 -31L26.8 -15.5L26.8 15.5L0 31L-26.8 15.5L-26.8 -15.5Z" fill="#e7aeac"></path></g><g transform="translate(195 41)"><path d="M0 -22L19.1 -11L19.1 11L0 22L-19.1 11L-19.1 -11Z" fill="#e7aeac"></path></g><g transform="translate(496 567)"><path d="M0 -9L7.8 -4.5L7.8 4.5L0 9L-7.8 4.5L-7.8 -4.5Z" fill="#e7aeac"></path></g><g transform="translate(147 466)"><path d="M0 -21L18.2 -10.5L18.2 10.5L0 21L-18.2 10.5L-18.2 -10.5Z" fill="#e7aeac"></path></g></g></svg>