<svg id="visual" viewBox="0 0 1800 1200" width="1800" height="1200" xmlns="http://www.w3.org/2000/svg" xmlns:xlink="http://www.w3.org/1999/xlink" version="1.1"><path d="M0 937L75 955.7C150 974.3 300 1011.7 450 1045.2C600 1078.7 750 1108.3 900 1090.5C1050 1072.7 1200 1007.3 1350 977.3C1500 947.3 1650 952.7 1725 955.3L1800 958L1800 1201L1725 1201C1650 1201 1500 1201 1350 1201C1200 1201 1050 1201 900 1201C750 1201 600 1201 450 1201C300 1201 150 1201 75 1201L0 1201Z" fill="#FFFFFF" stroke-linecap="round" stroke-linejoin="miter"></path></svg>