<svg width="24" height="24" viewBox="0 0 24 24" fill="none" xmlns="http://www.w3.org/2000/svg">
<path d="M21.6 4.2C21.6 4.944 21.144 5.592 20.496 5.856V21.588H2.388L7.452 13.512C7.28924 13.2355 7.20232 12.9209 7.2 12.6C7.2 11.604 8.004 10.8 9 10.8C9.996 10.8 10.8 11.604 10.8 12.6C10.8 12.756 10.776 12.9 10.74 13.044L12.468 13.8C12.792 13.44 13.272 13.2 13.8 13.2C14.016 13.2 14.22 13.248 14.412 13.308L18.708 5.616C18.276 5.292 18 4.776 18 4.2C18 3.204 18.804 2.4 19.8 2.4C20.028 2.4 20.232 2.448 20.436 2.52L20.496 2.412V2.544C21.144 2.808 21.6 3.456 21.6 4.2ZM19.296 20.388V7.02L15.348 14.088C15.504 14.364 15.6 14.664 15.6 15C15.6 15.996 14.796 16.8 13.8 16.8C12.804 16.8 12 15.996 12 15L12.012 14.916L10.056 14.052C9.756 14.268 9.396 14.4 9 14.4C8.784 14.4 8.58 14.352 8.388 14.28L4.548 20.388H19.296Z" fill="black"/>
</svg>
